<mxfile host="Electron" modified="2023-08-18T09:50:39.535Z" agent="Mozilla/5.0 (Windows NT 10.0; Win64; x64) AppleWebKit/537.36 (KHTML, like Gecko) draw.io/21.4.0 Chrome/112.0.5615.204 Electron/24.5.1 Safari/537.36" etag="uy8XKRBlKEU236yBYd2-" version="21.4.0" type="device">
  <diagram name="Page-1" id="GQMMZrUmPPb2PjYZMPW1">
    <mxGraphModel dx="1802" dy="909" grid="1" gridSize="10" guides="1" tooltips="1" connect="1" arrows="1" fold="1" page="1" pageScale="1" pageWidth="827" pageHeight="1169" math="0" shadow="0">
      <root>
        <mxCell id="0" />
        <mxCell id="1" parent="0" />
        <mxCell id="SVM2BJISpvn3hL2O0BAg-1" value="" style="ellipse;fillColor=strokeColor;html=1;" vertex="1" parent="1">
          <mxGeometry x="415" y="100" width="30" height="30" as="geometry" />
        </mxCell>
        <mxCell id="SVM2BJISpvn3hL2O0BAg-2" value="" style="endArrow=classic;html=1;rounded=0;entryX=0.498;entryY=0.02;entryDx=0;entryDy=0;entryPerimeter=0;" edge="1" parent="1" target="SVM2BJISpvn3hL2O0BAg-3">
          <mxGeometry width="50" height="50" relative="1" as="geometry">
            <mxPoint x="429.5799999999999" y="130" as="sourcePoint" />
            <mxPoint x="430" y="160" as="targetPoint" />
          </mxGeometry>
        </mxCell>
        <mxCell id="SVM2BJISpvn3hL2O0BAg-3" value="Is new Invoice?" style="html=1;whiteSpace=wrap;aspect=fixed;shape=isoRectangle;" vertex="1" parent="1">
          <mxGeometry x="355" y="160" width="150" height="90" as="geometry" />
        </mxCell>
        <mxCell id="SVM2BJISpvn3hL2O0BAg-4" value="No" style="text;html=1;strokeColor=none;fillColor=none;align=center;verticalAlign=middle;whiteSpace=wrap;rounded=0;" vertex="1" parent="1">
          <mxGeometry x="321" y="180" width="30" height="20" as="geometry" />
        </mxCell>
        <mxCell id="SVM2BJISpvn3hL2O0BAg-5" value="" style="ellipse;html=1;shape=endState;fillColor=strokeColor;" vertex="1" parent="1">
          <mxGeometry x="415" y="884" width="30" height="30" as="geometry" />
        </mxCell>
        <mxCell id="SVM2BJISpvn3hL2O0BAg-7" value="" style="endArrow=classic;html=1;rounded=0;exitX=0.5;exitY=0.979;exitDx=0;exitDy=0;exitPerimeter=0;" edge="1" parent="1" source="SVM2BJISpvn3hL2O0BAg-3">
          <mxGeometry width="50" height="50" relative="1" as="geometry">
            <mxPoint x="429.76" y="249" as="sourcePoint" />
            <mxPoint x="430" y="281" as="targetPoint" />
          </mxGeometry>
        </mxCell>
        <mxCell id="SVM2BJISpvn3hL2O0BAg-10" value="Create Invoice" style="rounded=1;whiteSpace=wrap;html=1;" vertex="1" parent="1">
          <mxGeometry x="370" y="280" width="120" height="60" as="geometry" />
        </mxCell>
        <mxCell id="SVM2BJISpvn3hL2O0BAg-11" value="Search &lt;br&gt;Receivable" style="rounded=1;whiteSpace=wrap;html=1;" vertex="1" parent="1">
          <mxGeometry x="370" y="496" width="120" height="60" as="geometry" />
        </mxCell>
        <mxCell id="SVM2BJISpvn3hL2O0BAg-12" value="Create&lt;br&gt;Invoice Line Group" style="rounded=1;whiteSpace=wrap;html=1;" vertex="1" parent="1">
          <mxGeometry x="370" y="403" width="120" height="60" as="geometry" />
        </mxCell>
        <mxCell id="SVM2BJISpvn3hL2O0BAg-14" value="" style="endArrow=classic;html=1;rounded=0;exitX=0.5;exitY=0.979;exitDx=0;exitDy=0;exitPerimeter=0;" edge="1" parent="1">
          <mxGeometry width="50" height="50" relative="1" as="geometry">
            <mxPoint x="429.76000000000005" y="463" as="sourcePoint" />
            <mxPoint x="429.76000000000005" y="496" as="targetPoint" />
          </mxGeometry>
        </mxCell>
        <mxCell id="SVM2BJISpvn3hL2O0BAg-15" value="" style="endArrow=classic;html=1;rounded=0;exitX=0.5;exitY=0.979;exitDx=0;exitDy=0;exitPerimeter=0;" edge="1" parent="1">
          <mxGeometry width="50" height="50" relative="1" as="geometry">
            <mxPoint x="429.76000000000005" y="850" as="sourcePoint" />
            <mxPoint x="429.76000000000005" y="883" as="targetPoint" />
          </mxGeometry>
        </mxCell>
        <mxCell id="SVM2BJISpvn3hL2O0BAg-20" value="" style="endArrow=classic;html=1;rounded=0;exitX=0.002;exitY=0.498;exitDx=0;exitDy=0;exitPerimeter=0;edgeStyle=orthogonalEdgeStyle;entryX=0.5;entryY=0;entryDx=0;entryDy=0;" edge="1" parent="1" source="SVM2BJISpvn3hL2O0BAg-3" target="SVM2BJISpvn3hL2O0BAg-26">
          <mxGeometry width="50" height="50" relative="1" as="geometry">
            <mxPoint x="460" y="490" as="sourcePoint" />
            <mxPoint x="430" y="380" as="targetPoint" />
          </mxGeometry>
        </mxCell>
        <mxCell id="SVM2BJISpvn3hL2O0BAg-22" value="Yes" style="text;html=1;strokeColor=none;fillColor=none;align=center;verticalAlign=middle;whiteSpace=wrap;rounded=0;" vertex="1" parent="1">
          <mxGeometry x="430" y="249" width="40" height="30" as="geometry" />
        </mxCell>
        <mxCell id="SVM2BJISpvn3hL2O0BAg-25" value="&lt;font style=&quot;font-size: 18px;&quot;&gt;&lt;b&gt;Invoice add&lt;/b&gt;&lt;/font&gt;" style="text;html=1;strokeColor=none;fillColor=none;align=center;verticalAlign=middle;whiteSpace=wrap;rounded=0;" vertex="1" parent="1">
          <mxGeometry x="40" y="50" width="140" height="30" as="geometry" />
        </mxCell>
        <mxCell id="SVM2BJISpvn3hL2O0BAg-26" value="Search Invoice" style="rounded=1;whiteSpace=wrap;html=1;" vertex="1" parent="1">
          <mxGeometry x="203" y="281" width="120" height="60" as="geometry" />
        </mxCell>
        <mxCell id="SVM2BJISpvn3hL2O0BAg-27" value="" style="endArrow=classic;html=1;rounded=0;exitX=0.5;exitY=1;exitDx=0;exitDy=0;entryX=0.5;entryY=0.027;entryDx=0;entryDy=0;entryPerimeter=0;" edge="1" parent="1" source="SVM2BJISpvn3hL2O0BAg-10">
          <mxGeometry width="50" height="50" relative="1" as="geometry">
            <mxPoint x="429.00000000000006" y="341" as="sourcePoint" />
            <mxPoint x="430" y="402.43000000000006" as="targetPoint" />
          </mxGeometry>
        </mxCell>
        <mxCell id="SVM2BJISpvn3hL2O0BAg-28" value="" style="endArrow=classic;html=1;rounded=0;exitX=0.5;exitY=1;exitDx=0;exitDy=0;edgeStyle=orthogonalEdgeStyle;" edge="1" parent="1" source="SVM2BJISpvn3hL2O0BAg-26">
          <mxGeometry width="50" height="50" relative="1" as="geometry">
            <mxPoint x="700" y="430" as="sourcePoint" />
            <mxPoint x="430" y="370" as="targetPoint" />
            <Array as="points">
              <mxPoint x="263" y="370" />
            </Array>
          </mxGeometry>
        </mxCell>
        <mxCell id="SVM2BJISpvn3hL2O0BAg-29" value="Is receivable&lt;br&gt;&amp;nbsp;pending?" style="html=1;whiteSpace=wrap;aspect=fixed;shape=isoRectangle;" vertex="1" parent="1">
          <mxGeometry x="355" y="586" width="150" height="90" as="geometry" />
        </mxCell>
        <mxCell id="SVM2BJISpvn3hL2O0BAg-30" value="" style="endArrow=classic;html=1;rounded=0;exitX=0.5;exitY=0.979;exitDx=0;exitDy=0;exitPerimeter=0;" edge="1" parent="1">
          <mxGeometry width="50" height="50" relative="1" as="geometry">
            <mxPoint x="430.00000000000006" y="556" as="sourcePoint" />
            <mxPoint x="430.00000000000006" y="589" as="targetPoint" />
          </mxGeometry>
        </mxCell>
        <mxCell id="SVM2BJISpvn3hL2O0BAg-31" value="Create&lt;br&gt;Invoice Line" style="rounded=1;whiteSpace=wrap;html=1;" vertex="1" parent="1">
          <mxGeometry x="370" y="700" width="120" height="60" as="geometry" />
        </mxCell>
        <mxCell id="SVM2BJISpvn3hL2O0BAg-32" value="Update&amp;nbsp;&lt;br&gt;Receivable" style="rounded=1;whiteSpace=wrap;html=1;" vertex="1" parent="1">
          <mxGeometry x="370" y="790" width="120" height="60" as="geometry" />
        </mxCell>
        <mxCell id="SVM2BJISpvn3hL2O0BAg-33" value="" style="endArrow=classic;html=1;rounded=0;exitX=0.499;exitY=0.982;exitDx=0;exitDy=0;exitPerimeter=0;" edge="1" parent="1" source="SVM2BJISpvn3hL2O0BAg-29">
          <mxGeometry width="50" height="50" relative="1" as="geometry">
            <mxPoint x="430.00000000000006" y="670" as="sourcePoint" />
            <mxPoint x="430" y="700" as="targetPoint" />
          </mxGeometry>
        </mxCell>
        <mxCell id="SVM2BJISpvn3hL2O0BAg-34" value="" style="endArrow=classic;html=1;rounded=0;exitX=0.5;exitY=1;exitDx=0;exitDy=0;" edge="1" parent="1" source="SVM2BJISpvn3hL2O0BAg-31">
          <mxGeometry width="50" height="50" relative="1" as="geometry">
            <mxPoint x="429.31" y="765" as="sourcePoint" />
            <mxPoint x="430" y="790" as="targetPoint" />
          </mxGeometry>
        </mxCell>
        <mxCell id="SVM2BJISpvn3hL2O0BAg-35" value="" style="endArrow=classic;html=1;rounded=0;exitX=0.995;exitY=0.501;exitDx=0;exitDy=0;exitPerimeter=0;edgeStyle=orthogonalEdgeStyle;" edge="1" parent="1" source="SVM2BJISpvn3hL2O0BAg-29">
          <mxGeometry width="50" height="50" relative="1" as="geometry">
            <mxPoint x="440.00000000000006" y="566" as="sourcePoint" />
            <mxPoint x="430" y="860" as="targetPoint" />
            <Array as="points">
              <mxPoint x="540" y="631" />
              <mxPoint x="540" y="860" />
            </Array>
          </mxGeometry>
        </mxCell>
        <mxCell id="SVM2BJISpvn3hL2O0BAg-36" value="No" style="text;html=1;strokeColor=none;fillColor=none;align=center;verticalAlign=middle;whiteSpace=wrap;rounded=0;" vertex="1" parent="1">
          <mxGeometry x="505" y="610" width="30" height="20" as="geometry" />
        </mxCell>
      </root>
    </mxGraphModel>
  </diagram>
</mxfile>
